:SAMPLES-PER-SECOND 30
:FULLY-SPECIFIED
:DEGREES
175
root  -4.20547 40.7767 -0.672178 1.9157 -44.3789 2.93492
RightUpLeg  4.13469 -3.58901 0.167784
RightLeg  -9.64416 -61.894 9.65379
RightFoot  -1.97522 -0.36233 4.25592
RightToes  -3.1126e-008 1.75238e-005 3.56266e-009
Spine  9.24984 6.59764 -1.27271
Spine1  -16.312 6.46661 -2.91609
HEad  0.82188 -0.739014 0.891078
LeftShoulder1  0.0954942 3.0881 -16.17
LeftArm  -33.6626 -9.83337 -41.4563
LeftForeArm  59.8038 -76.5683 -43.6248
LeftHand  -0.574329 -4.3185 7.14763
RightShoulder  1.05241 0.742522 18.3349
RightArm  -29.4056 10.6477 32.212
RightForeArm  99.1842 79.0604 107.182
RightHand  -0.164469 8.06574 -1.79393
LeftUpLeg  -8.50328 -2.71624 0.518439
LeftLeg  -0.951961 -23.028 0.784085
LeftFoot  3.92517 0.861956 -6.60538
LeftToes  4.78049e-008 1.46235e-008 1.34219e-009
176
root  -4.15611 40.7842 -0.63573 1.92967 -44.9072 3.02675
RightUpLeg  3.93554 -3.62281 -0.0131839
RightLeg  -9.25595 -61.3482 9.22793
RightFoot  -1.83611 -0.367719 4.2691
RightToes  -3.1126e-008 1.75238e-005 3.56266e-009
Spine  9.13938 6.63383 -0.534907
Spine1  -16.0139 6.56429 -3.52797
HEad  0.825143 -1.52459 1.0377
LeftShoulder1  0.106992 3.03569 -16.0419
LeftArm  -33.9346 -8.93601 -41.1652
LeftForeArm  59.7614 -76.5673 -43.646
LeftHand  -0.553861 -4.46903 6.80515
RightShoulder  1.03827 0.704497 18.2151
RightArm  -29.6124 11.1347 32.0442
RightForeArm  99.6214 79.0565 107.418
RightHand  -0.155388 8.44718 -1.68617
LeftUpLeg  -8.49661 -2.73017 0.474854
LeftLeg  -1.0664 -22.4564 0.720682
LeftFoot  3.97923 0.874492 -6.67777
LeftToes  4.78049e-008 1.46235e-008 1.34219e-009
177
root  -4.1061 40.7934 -0.59474 1.77383 -45.4412 3.13503
RightUpLeg  3.92274 -3.66663 -0.21611
RightLeg  -8.90129 -60.7525 8.80673
RightFoot  -1.6875 -0.378714 4.34532
RightToes  -3.1126e-008 1.75238e-005 3.56266e-009
Spine  9.47884 6.57703 0.573269
Spine1  -16.1912 6.59293 -4.89083
HEad  1.21913 -1.64088 1.65498
LeftShoulder1  0.0948749 3.08029 -15.563
LeftArm  -34.144 -8.04159 -41.2245
LeftForeArm  58.56 -76.2941 -42.5608
LeftHand  -0.537811 -4.50891 6.59271
RightShoulder  1.03367 0.643127 18.492
RightArm  -29.5995 11.2999 31.7403
RightForeArm  99.8095 79.0143 107.896
RightHand  -0.120454 8.77375 -1.37444
LeftUpLeg  -8.25938 -2.7627 0.372626
LeftLeg  -1.28409 -21.8385 0.718642
LeftFoot  4.11135 0.85482 -6.48089
LeftToes  4.78049e-008 1.46235e-008 1.34219e-009
178
root  -4.08297 40.8008 -0.556194 1.84018 -45.9784 3.08017
RightUpLeg  3.91957 -3.53211 -0.20483
RightLeg  -9.0942 -60.3706 8.83863
RightFoot  -1.52895 -0.378607 4.28585
RightToes  -3.1126e-008 1.75238e-005 3.56266e-009
Spine  9.19001 6.60587 1.10345
Spine1  -15.7921 6.68638 -5.34613
HEad  1.60766 -1.72648 1.9453
LeftShoulder1  0.100222 3.057 -15.5758
LeftArm  -34.8443 -7.32911 -41.2884
LeftForeArm  57.6335 -76.0483 -41.5897
LeftHand  -0.557525 -4.62531 6.75362
RightShoulder  1.04373 0.68136 18.5059
RightArm  -29.6518 11.2271 31.377
RightForeArm  98.8567 79.0253 107.367
RightHand  -0.158136 8.43678 -1.70607
LeftUpLeg  -8.20828 -2.74973 0.39577
LeftLeg  -1.29186 -21.3179 0.726608
LeftFoot  4.0851 0.835079 -6.3455
LeftToes  4.78049e-008 1.46235e-008 1.34219e-009
179
root  -4.0654 40.8073 -0.533298 1.89015 -46.5936 3.00887
RightUpLeg  3.94602 -3.47248 -0.216443
RightLeg  -9.28401 -59.8174 8.95088
RightFoot  -1.43617 -0.367649 4.13154
RightToes  -3.1126e-008 1.75238e-005 3.56266e-009
Spine  9.31758 6.59769 1.3665
Spine1  -15.9474 6.68335 -5.44566
HEad  1.79798 -1.30562 1.9382
LeftShoulder1  0.108472 3.03065 -16.1518
LeftArm  -35.5466 -6.39396 -40.7683
LeftForeArm  57.9928 -76.3192 -42.8989
LeftHand  -0.555513 -4.20165 6.99745
RightShoulder  1.03096 0.692549 18.1019
RightArm  -29.7169 10.6814 31.4482
RightForeArm  98.0486 79.0929 106.346
RightHand  -0.114335 8.66748 -1.33109
LeftUpLeg  -8.13324 -2.65318 0.475253
LeftLeg  -1.29001 -20.814 0.694383
LeftFoot  4.04207 0.812311 -6.19338
LeftToes  4.78049e-008 1.46235e-008 1.34219e-009
180
root  -4.06415 40.8115 -0.518862 1.81096 -47.0997 3.06052
RightUpLeg  3.9687 -3.41574 -0.256742
RightLeg  -9.20047 -59.3811 8.76572
RightFoot  -1.39331 -0.372849 4.20589
RightToes  -3.1126e-008 1.75238e-005 3.56266e-009
Spine  9.44772 6.63527 1.09143
Spine1  -16.0253 6.69217 -5.03968
HEad  1.58237 -1.91298 1.80769
LeftShoulder1  0.114059 3.01706 -16.6413
LeftArm  -36.4759 -5.81407 -40.4255
LeftForeArm  58.839 -76.5838 -44.0929
LeftHand  -0.532348 -4.1634 6.746
RightShoulder  0.984694 0.568957 17.6766
RightArm  -29.9615 10.0374 31.2435
RightForeArm  98.1027 79.0983 106.319
RightHand  -0.0969907 9.04592 -1.16978
LeftUpLeg  -7.98232 -2.58345 0.496214
LeftLeg  -1.36665 -20.4167 0.673316
LeftFoot  4.0292 0.806699 -6.15652
LeftToes  4.78049e-008 1.46235e-008 1.34219e-009
181
root  -4.06416 40.8128 -0.507732 1.92038 -47.3295 3.0703
RightUpLeg  3.82781 -3.38487 -0.270315
RightLeg  -9.13526 -59.1826 8.67707
RightFoot  -1.37472 -0.375656 4.23255
RightToes  -3.1126e-008 1.75238e-005 3.56266e-009
Spine  9.21851 6.70579 0.659613
Spine1  -15.8457 6.72595 -4.36273
HEad  1.367 -3.18236 1.88105
LeftShoulder1  0.170223 2.78669 -17.0407
LeftArm  -37.5443 -5.43137 -40.5064
LeftForeArm  59.9063 -76.8259 -45.1609
LeftHand  -0.54907 -4.5169 6.71853
RightShoulder  0.868906 0.177775 17.0535
RightArm  -30.5137 9.09255 31.1135
RightForeArm  97.5388 79.0692 106.341
RightHand  -0.0625292 8.41382 -0.909777
LeftUpLeg  -8.03912 -2.55807 0.535302
LeftLeg  -1.44605 -20.2822 0.660068
LeftFoot  4.04335 0.803106 -6.12492
LeftToes  4.78049e-008 1.46235e-008 1.34219e-009
182
root  -4.07254 40.8192 -0.49644 1.99115 -47.5089 3.11217
RightUpLeg  3.76561 -3.49653 -0.383335
RightLeg  -9.21147 -58.8539 8.84924
RightFoot  -1.38412 -0.370791 4.13356
RightToes  -3.1126e-008 1.75238e-005 3.56266e-009
Spine  9.10586 6.70223 -0.190333
Spine1  -15.9049 6.63943 -3.21114
HEad  1.44832 -2.91055 1.27633
LeftShoulder1  0.132664 2.95008 -17.2439
LeftArm  -38.2675 -4.87219 -40.5322
LeftForeArm  59.8748 -76.9449 -45.9481
LeftHand  -0.575808 -4.45899 7.07183
RightShoulder  0.758478 -0.209065 16.4521
RightArm  -31.2187 8.1828 30.7183
RightForeArm  96.3279 79.11 105.362
RightHand  -0.0600258 8.77131 -0.881923
LeftUpLeg  -8.03301 -2.47285 0.57336
LeftLeg  -1.60751 -20.0768 0.610421
LeftFoot  4.04684 0.832772 -6.34251
LeftToes  4.78049e-008 1.46235e-008 1.34219e-009
183
root  -4.08484 40.8329 -0.472224 1.89102 -48.0372 3.28192
RightUpLeg  3.77482 -3.68901 -0.637536
RightLeg  -9.14615 -58.0366 8.85901
RightFoot  -1.32756 -0.36453 4.01035
RightToes  -3.1126e-008 1.75238e-005 3.56266e-009
Spine  9.13366 6.65688 0.208869
Spine1  -15.997 6.64034 -4.16272
HEad  1.18004 -2.56746 1.30467
LeftShoulder1  0.0666474 3.2193 -16.4639
LeftArm  -38.1252 -4.73522 -40.5433
LeftForeArm  59.3139 -76.7675 -45.0277
LeftHand  -0.564689 -4.15251 7.1427
RightShoulder  0.721542 -0.409816 16.7772
RightArm  -32.2123 7.01066 29.7651
RightForeArm  95.9622 79.0721 105.574
RightHand  -0.115658 8.42339 -1.35052
LeftUpLeg  -7.72661 -2.36581 0.578637
LeftLeg  -2.10313 -19.4024 0.573423
LeftFoot  4.08722 0.883739 -6.70332
LeftToes  4.78049e-008 1.46235e-008 1.34219e-009
184
root  -4.06748 40.8453 -0.451584 1.78061 -49.2033 3.24857
RightUpLeg  3.75364 -3.70813 -0.743674
RightLeg  -8.67382 -56.8173 8.38396
RightFoot  -1.18414 -0.361043 3.93156
RightToes  -3.1126e-008 1.75238e-005 3.56266e-009
Spine  9.35414 6.58364 0.634016
Spine1  -16.0898 6.60538 -4.71074
HEad  0.89533 -2.29169 1.24789
LeftShoulder1  -0.0268844 3.62116 -15.6894
LeftArm  -37.9405 -4.09738 -40.4523
LeftForeArm  59.5692 -76.762 -44.8947
LeftHand  -0.547623 -4.132 6.94919
RightShoulder  0.728059 -0.409416 17.0124
RightArm  -33.0959 6.56937 29.3371
RightForeArm  95.2898 79.1011 104.954
RightHand  -0.0767429 8.76704 -1.02213
LeftUpLeg  -7.2875 -2.16437 0.72347
LeftLeg  -2.41661 -18.3551 0.501437
LeftFoot  4.07898 0.852514 -6.47639
LeftToes  4.78049e-008 1.46235e-008 1.34219e-009
185
root  -4.01309 40.8606 -0.433195 1.70235 -50.9812 3.16661
RightUpLeg  3.52997 -3.68929 -0.868478
RightLeg  -7.7568 -55.0384 7.52149
RightFoot  -1.07552 -0.360858 3.90941
RightToes  -3.1126e-008 1.75238e-005 3.56266e-009
Spine  9.3132 6.75609 1.05673
Spine1  -15.7839 6.83055 -5.11947
HEad  0.814257 -2.40203 1.2889
LeftShoulder1  0.0183947 3.42155 -15.5256
LeftArm  -37.964 -3.97816 -39.7332
LeftForeArm  58.9776 -76.6078 -44.1815
LeftHand  -0.578503 -4.33332 7.18624
RightShoulder  0.69528 -0.559746 17.112
RightArm  -33.674 6.16132 28.8289
RightForeArm  95.1362 79.095 104.943
RightHand  0.0272013 9.14622 -0.180379
LeftUpLeg  -7.06775 -1.98075 0.873038
LeftLeg  -2.2175 -16.6852 0.3372
LeftFoot  3.99521 0.794483 -6.07829
LeftToes  4.78049e-008 1.46235e-008 1.34219e-009
186
root  -3.95306 40.8701 -0.411073 1.60905 -53.3704 3.03711
RightUpLeg  3.32189 -3.48893 -0.912665
RightLeg  -6.94415 -52.849 6.58613
RightFoot  -0.887822 -0.363038 3.93329
RightToes  -3.1126e-008 1.75238e-005 3.56266e-009
Spine  9.40572 6.95135 0.959236
Spine1  -15.6336 7.00547 -4.43862
HEad  0.392415 -1.61092 0.61046
LeftShoulder1  -0.00636387 3.53186 -15.9222
LeftArm  -38.0796 -4.09769 -39.1625
LeftForeArm  58.9525 -76.5753 -44.0009
LeftHand  -0.556846 -4.19149 7.02617
RightShoulder  0.695686 -0.471457 16.3619
RightArm  -33.7528 5.919 28.7881
RightForeArm  94.3648 79.0719 104.806
RightHand  -0.105272 8.65089 -1.25124
LeftUpLeg  -6.755 -1.66401 1.16337
LeftLeg  -1.93494 -14.6978 0.0912431
LeftFoot  3.68941 0.749537 -5.84808
LeftToes  4.78049e-008 1.46235e-008 1.34219e-009
187
root  -3.88928 40.8833 -0.384801 1.63007 -56.3862 2.77658
RightUpLeg  3.30854 -3.32678 -0.958301
RightLeg  -7.06805 -50.0635 6.53794
RightFoot  -0.606108 -0.334783 3.49809
RightToes  -3.1126e-008 1.75238e-005 3.56266e-009
Spine  8.93922 7.01778 1.19405
Spine1  -14.7284 7.13888 -4.4088
HEad  0.0374543 -1.03656 0.560134
LeftShoulder1  -0.0190136 3.58701 -16.0449
LeftArm  -38.4478 -4.92656 -38.7869
LeftForeArm  58.096 -76.4107 -43.3702
LeftHand  -0.561158 -3.89728 7.2835
RightShoulder  0.728626 -0.348047 16.5054
RightArm  -33.7415 6.63933 28.5304
RightForeArm  93.4005 79.1551 103.43
RightHand  -0.0567012 8.4768 -0.856985
LeftUpLeg  -6.27406 -1.348 1.51889
LeftLeg  -1.82406 -12.1745 -0.00391167
LeftFoot  3.35491 0.68141 -5.44083
LeftToes  4.78049e-008 1.46235e-008 1.34219e-009
188
root  -3.81079 40.9067 -0.359501 1.51299 -59.6303 2.69861
RightUpLeg  3.13112 -3.099 -1.0484
RightLeg  -6.88406 -47.1521 6.08656
RightFoot  -0.254917 -0.314465 3.22082
RightToes  -3.1126e-008 1.75238e-005 3.56266e-009
Spine  9.31395 6.9174 1.53365
Spine1  -15.028 7.05502 -4.67848
HEad  0.244374 -1.24371 0.634117
LeftShoulder1  -0.00606014 3.53013 -16.12
LeftArm  -38.5881 -5.56826 -38.5528
LeftForeArm  57.6928 -76.2999 -42.9005
LeftHand  -0.590601 -4.22983 7.40582
RightShoulder  0.641031 -0.65421 15.8889
RightArm  -33.3653 6.95472 29.4307
RightForeArm  92.9445 79.215 102.516
RightHand  -0.0898397 8.7348 -1.12512
LeftUpLeg  -5.641 -1.16152 1.72933
LeftLeg  -2.04476 -9.20625 0.000843489
LeftFoot  3.28825 0.636783 -5.11555
LeftToes  4.78049e-008 1.46235e-008 1.34219e-009
